<?xml version="1.0" encoding="UTF-8" standalone="no"?>
<!-- Created with Inkscape (http://www.inkscape.org/) -->

<svg
   xmlns:dc="http://purl.org/dc/elements/1.1/"
   xmlns:cc="http://creativecommons.org/ns#"
   xmlns:rdf="http://www.w3.org/1999/02/22-rdf-syntax-ns#"
   xmlns:svg="http://www.w3.org/2000/svg"
   xmlns="http://www.w3.org/2000/svg"
   xmlns:sodipodi="http://sodipodi.sourceforge.net/DTD/sodipodi-0.dtd"
   xmlns:inkscape="http://www.inkscape.org/namespaces/inkscape"
   width="744.09448819"
   height="1052.3622047"
   id="svg2"
   version="1.1"
   inkscape:version="0.48.4 r9939"
   sodipodi:docname="Jellyfish_basic_2.dxf">
  <defs
     id="defs4" />
  <sodipodi:namedview
     id="base"
     pagecolor="#ffffff"
     bordercolor="#666666"
     borderopacity="1.0"
     inkscape:pageopacity="0.0"
     inkscape:pageshadow="2"
     inkscape:zoom="2.8"
     inkscape:cx="448.52021"
     inkscape:cy="650.89338"
     inkscape:document-units="px"
     inkscape:current-layer="layer1"
     showgrid="false"
     inkscape:window-width="1920"
     inkscape:window-height="1018"
     inkscape:window-x="-8"
     inkscape:window-y="-8"
     inkscape:window-maximized="1" />
  <metadata
     id="metadata7">
    <rdf:RDF>
      <cc:Work
         rdf:about="">
        <dc:format>image/svg+xml</dc:format>
        <dc:type
           rdf:resource="http://purl.org/dc/dcmitype/StillImage" />
        <dc:title></dc:title>
      </cc:Work>
    </rdf:RDF>
  </metadata>
  <g
     inkscape:label="Layer 1"
     inkscape:groupmode="layer"
     id="layer1">
    <path
       style="fill:#000000"
       d="m 352.22986,396.27931 c 12.21451,-7.05115 16.14256,-7.42188 25.70636,-2.42618 7.89422,4.12358 9.84352,3.8698 16.5054,-2.1488 7.16842,-6.47624 11.94808,-6.97721 19.26398,-2.01912 7.23747,4.90494 9.04164,5.24796 11.09773,2.10996 1.47025,-2.24388 1.53389,-3.16404 0.47024,-6.79972 -0.67656,-2.31258 -2.142,-5.7782 -3.25654,-7.70138 -4.89777,-8.45132 -5.83369,-12.38764 -10.34353,-43.5033 -0.79716,-5.5 -2.33717,-12.925 -3.42223,-16.5 -2.31872,-7.63954 -9.77312,-21.08316 -14.33086,-25.84496 -5.39646,-5.63807 -15.56595,-12.35238 -22.54669,-14.88625 -12.1014,-4.39257 -30.38191,-4.21923 -44.05288,0.41773 -10.1928,3.45722 -27.88564,17.5929 -34.80451,27.80702 -6.21361,9.17297 -10.15683,23.84005 -12.31958,45.82352 -0.68243,6.93659 -1.97415,13.21446 -3.60076,17.5 -6.96656,18.35437 -7.41993,19.95227 -6.41271,22.60145 0.53981,1.41982 1.55512,2.5801 2.25623,2.57841 0.70111,-0.002 4.39895,-1.5767 8.21742,-3.5 9.58827,-4.82948 11.79509,-4.56815 18.128,2.14669 3.88866,4.12318 6.49279,4.26054 16.23622,0.85639 9.34518,-3.26501 12.7301,-3.17949 18.47982,0.46687 8.19421,5.19662 13.48314,6.04992 18.72889,3.02167 z"
       id="path2996"
       inkscape:connector-curvature="0"
       sodipodi:nodetypes="ssssssssssssssscssssss" />
    <g
       id="g3041"
       transform="translate(0,-8.3788138)">
      <path
         d="m 337.89603,326.82013 c 0,7.81049 -6.50124,14.14214 -14.52094,14.14214 -8.01969,0 -14.52094,-6.33165 -14.52094,-14.14214 0,-7.81049 6.50125,-14.14214 14.52094,-14.14214 8.0197,0 14.52094,6.33165 14.52094,14.14214 z"
         sodipodi:ry="14.142136"
         sodipodi:rx="14.520943"
         sodipodi:cy="326.82013"
         sodipodi:cx="323.37509"
         id="path2998"
         style="fill:#000000;fill-opacity:1;stroke:#000000;stroke-width:0.35433072;stroke-linecap:butt;stroke-linejoin:miter;stroke-miterlimit:4;stroke-opacity:1;stroke-dasharray:none"
         sodipodi:type="arc" />
      <path
         transform="translate(-2,-2)"
         d="m 331.83512,323.66339 c 0,4.11445 -3.22235,7.44988 -7.19733,7.44988 -3.97498,0 -7.19734,-3.33543 -7.19734,-7.44988 0,-4.11445 3.22236,-7.44987 7.19734,-7.44987 3.97498,0 7.19733,3.33542 7.19733,7.44987 z"
         sodipodi:ry="7.4498749"
         sodipodi:rx="7.1973367"
         sodipodi:cy="323.66339"
         sodipodi:cx="324.63779"
         id="path3002"
         style="fill:#000000;fill-opacity:1;stroke:#000000;stroke-width:0.35433072;stroke-linecap:butt;stroke-linejoin:miter;stroke-miterlimit:4;stroke-opacity:1;stroke-dasharray:none"
         sodipodi:type="arc" />
      <path
         d="m 333.09779,333.63864 c 0,2.0921 -1.97864,3.78807 -4.41941,3.78807 -2.44078,0 -4.41942,-1.69597 -4.41942,-3.78807 0,-2.09209 1.97864,-3.78807 4.41942,-3.78807 2.44077,0 4.41941,1.69598 4.41941,3.78807 z"
         sodipodi:ry="3.7880721"
         sodipodi:rx="4.4194174"
         sodipodi:cy="333.63864"
         sodipodi:cx="328.67838"
         id="path3004"
         style="fill:#000000;fill-opacity:1;stroke:#000000;stroke-width:0.35433072;stroke-linecap:butt;stroke-linejoin:miter;stroke-miterlimit:4;stroke-opacity:1;stroke-dasharray:none"
         sodipodi:type="arc" />
      <path
         transform="matrix(0.87408803,0.48576756,-0.48576756,0.87408803,201.27029,-112.00003)"
         d="m 320.97598,332.24969 c 0,1.60394 -1.92211,2.90419 -4.29315,2.90419 -2.37104,0 -4.29315,-1.30025 -4.29315,-2.90419 0,-1.60393 1.92211,-2.90418 4.29315,-2.90418 2.37104,0 4.29315,1.30025 4.29315,2.90418 z"
         sodipodi:ry="2.9041886"
         sodipodi:rx="4.2931485"
         sodipodi:cy="332.24969"
         sodipodi:cx="316.68283"
         id="path3006"
         style="fill:#000000;fill-opacity:1;stroke:#000000;stroke-width:0.35433072;stroke-linecap:butt;stroke-linejoin:miter;stroke-miterlimit:4;stroke-opacity:1;stroke-dasharray:none"
         sodipodi:type="arc" />
    </g>
    <path
       transform="translate(48.866122,-8.3788138)"
       sodipodi:type="arc"
       style="fill:#000000;fill-opacity:1;stroke:#000000;stroke-width:0.35433072;stroke-linecap:butt;stroke-linejoin:miter;stroke-miterlimit:4;stroke-opacity:1;stroke-dasharray:none"
       id="path2998-1"
       sodipodi:cx="323.37509"
       sodipodi:cy="326.82013"
       sodipodi:rx="14.520943"
       sodipodi:ry="14.142136"
       d="m 337.89603,326.82013 a 14.520943,14.142136 0 1 1 -29.04188,0 14.520943,14.142136 0 1 1 29.04188,0 z" />
    <g
       id="g3111">
      <path
         transform="translate(46.866122,-10.378814)"
         d="m 331.83512,323.66339 a 7.1973367,7.4498749 0 1 1 -14.39467,0 7.1973367,7.4498749 0 1 1 14.39467,0 z"
         sodipodi:ry="7.4498749"
         sodipodi:rx="7.1973367"
         sodipodi:cy="323.66339"
         sodipodi:cx="324.63779"
         id="path3002-7"
         style="fill:#000000;fill-opacity:1;stroke:#000000;stroke-width:0.35433072;stroke-linecap:butt;stroke-linejoin:miter;stroke-miterlimit:4;stroke-opacity:1;stroke-dasharray:none"
         sodipodi:type="arc" />
      <path
         d="m 333.09779,333.63864 a 4.4194174,3.7880721 0 1 1 -8.83883,0 4.4194174,3.7880721 0 1 1 8.83883,0 z"
         sodipodi:ry="3.7880721"
         sodipodi:rx="4.4194174"
         sodipodi:cy="333.63864"
         sodipodi:cx="328.67838"
         id="path3004-4"
         style="fill:#000000;fill-opacity:1;stroke:#000000;stroke-width:0.35433072;stroke-linecap:butt;stroke-linejoin:miter;stroke-miterlimit:4;stroke-opacity:1;stroke-dasharray:none"
         sodipodi:type="arc"
         transform="translate(48.866122,-8.3788138)" />
      <path
         transform="matrix(0.87408803,0.48576756,-0.48576756,0.87408803,250.13642,-120.37885)"
         d="m 320.97598,332.24969 a 4.2931485,2.9041886 0 1 1 -8.5863,0 4.2931485,2.9041886 0 1 1 8.5863,0 z"
         sodipodi:ry="2.9041886"
         sodipodi:rx="4.2931485"
         sodipodi:cy="332.24969"
         sodipodi:cx="316.68283"
         id="path3006-0"
         style="fill:#000000;fill-opacity:1;stroke:#000000;stroke-width:0.35433072;stroke-linecap:butt;stroke-linejoin:miter;stroke-miterlimit:4;stroke-opacity:1;stroke-dasharray:none"
         sodipodi:type="arc" />
    </g>
    <g
       id="g3116">
      <path
         sodipodi:nodetypes="ssssssssssssssssss"
         inkscape:connector-curvature="0"
         id="path2996-4"
         d="m 344.36688,356.52226 c -0.57823,-0.66706 -1.05133,-1.3401 -1.05133,-1.49566 0,-0.39685 -1.98086,-1.18463 -3.85755,-1.53414 -1.9182,-0.35723 -3.74827,-1.93318 -5.31639,-4.57815 -1.43412,-2.41898 -1.47279,-3.13143 -0.16995,-3.13143 0.65669,0 2.01209,0.99158 3.93315,2.87738 3.51044,3.44603 4.32213,3.59118 6.18865,1.10669 1.13644,-1.51269 1.56237,-1.7707 2.92323,-1.7707 1.30242,0 1.82494,0.28261 2.86471,1.54936 0.69945,0.85215 1.54324,1.54936 1.87509,1.54936 0.63797,0 2.31877,-2.01849 2.31877,-2.78463 0,-1.06825 2.14671,-3.41281 3.12482,-3.41281 1.31035,0 1.29499,0.75986 -0.0741,3.66678 -1.66365,3.53226 -2.56952,4.70206 -4.20843,5.43456 -0.82643,0.36937 -2.09305,1.36113 -2.81472,2.2039 -1.08546,1.26763 -1.60338,1.53232 -2.99834,1.53232 -1.3063,0 -1.92313,-0.27327 -2.73758,-1.21283 z"
         style="fill:#000000" />
      <path
         transform="matrix(1.1881111,0,0,1.1714445,-66.133289,-60.996024)"
         d="m 350.44642,353.43362 a 2.6785715,2.6785715 0 1 1 -5.35714,0 2.6785715,2.6785715 0 1 1 5.35714,0 z"
         sodipodi:ry="2.6785715"
         sodipodi:rx="2.6785715"
         sodipodi:cy="353.43362"
         sodipodi:cx="347.76785"
         id="path3073"
         style="fill:#000000;fill-opacity:1;stroke:#000000;stroke-width:0.35433072;stroke-linecap:butt;stroke-linejoin:miter;stroke-miterlimit:4;stroke-opacity:1;stroke-dasharray:none"
         sodipodi:type="arc" />
    </g>
  </g>
</svg>
